<mxfile host="Electron" agent="Mozilla/5.0 (Windows NT 10.0; Win64; x64) AppleWebKit/537.36 (KHTML, like Gecko) draw.io/26.0.4 Chrome/128.0.6613.186 Electron/32.2.5 Safari/537.36" version="26.0.4">
  <diagram name="Seite-1" id="jhgarXbbAVbCduEtUYJY">
    <mxGraphModel dx="1418" dy="820" grid="1" gridSize="10" guides="1" tooltips="1" connect="1" arrows="1" fold="1" page="1" pageScale="1" pageWidth="583" pageHeight="827" math="0" shadow="0">
      <root>
        <mxCell id="0" />
        <mxCell id="1" parent="0" />
        <mxCell id="bOb_9my18t1phWn9kann-12" style="edgeStyle=orthogonalEdgeStyle;rounded=0;orthogonalLoop=1;jettySize=auto;html=1;entryX=0.5;entryY=0;entryDx=0;entryDy=0;exitX=0.5;exitY=0;exitDx=0;exitDy=0;dashed=1;fontFamily=Times New Roman;" parent="1" source="bOb_9my18t1phWn9kann-1" target="bOb_9my18t1phWn9kann-2" edge="1">
          <mxGeometry relative="1" as="geometry">
            <mxPoint x="130" y="250" as="sourcePoint" />
            <mxPoint x="200" y="250" as="targetPoint" />
          </mxGeometry>
        </mxCell>
        <mxCell id="bOb_9my18t1phWn9kann-1" value="Physical Object" style="whiteSpace=wrap;html=1;aspect=fixed;fontFamily=Times New Roman;" parent="1" vertex="1">
          <mxGeometry x="50" y="280" width="80" height="80" as="geometry" />
        </mxCell>
        <mxCell id="bOb_9my18t1phWn9kann-13" style="edgeStyle=orthogonalEdgeStyle;rounded=0;orthogonalLoop=1;jettySize=auto;html=1;entryX=0.5;entryY=1;entryDx=0;entryDy=0;exitX=0.5;exitY=1;exitDx=0;exitDy=0;dashed=1;fontFamily=Times New Roman;" parent="1" source="bOb_9my18t1phWn9kann-2" target="bOb_9my18t1phWn9kann-1" edge="1">
          <mxGeometry relative="1" as="geometry" />
        </mxCell>
        <mxCell id="bOb_9my18t1phWn9kann-2" value="Digital Object" style="whiteSpace=wrap;html=1;aspect=fixed;fillColor=#eeeeee;strokeColor=#36393d;fontFamily=Times New Roman;" parent="1" vertex="1">
          <mxGeometry x="160" y="320" width="80" height="80" as="geometry" />
        </mxCell>
        <mxCell id="bOb_9my18t1phWn9kann-14" value="Digital Model" style="text;html=1;align=center;verticalAlign=middle;whiteSpace=wrap;rounded=0;fontFamily=Times New Roman;" parent="1" vertex="1">
          <mxGeometry x="110" y="440" width="60" height="30" as="geometry" />
        </mxCell>
        <mxCell id="bOb_9my18t1phWn9kann-15" style="edgeStyle=orthogonalEdgeStyle;rounded=0;orthogonalLoop=1;jettySize=auto;html=1;entryX=0.5;entryY=0;entryDx=0;entryDy=0;exitX=0.5;exitY=0;exitDx=0;exitDy=0;fontFamily=Times New Roman;" parent="1" source="bOb_9my18t1phWn9kann-16" target="bOb_9my18t1phWn9kann-18" edge="1">
          <mxGeometry relative="1" as="geometry">
            <mxPoint x="360" y="250" as="sourcePoint" />
            <mxPoint x="430" y="250" as="targetPoint" />
          </mxGeometry>
        </mxCell>
        <mxCell id="bOb_9my18t1phWn9kann-16" value="Physical Object" style="whiteSpace=wrap;html=1;aspect=fixed;fontFamily=Times New Roman;" parent="1" vertex="1">
          <mxGeometry x="280" y="280" width="80" height="80" as="geometry" />
        </mxCell>
        <mxCell id="bOb_9my18t1phWn9kann-17" style="edgeStyle=orthogonalEdgeStyle;rounded=0;orthogonalLoop=1;jettySize=auto;html=1;entryX=0.5;entryY=1;entryDx=0;entryDy=0;exitX=0.5;exitY=1;exitDx=0;exitDy=0;dashed=1;fontFamily=Times New Roman;" parent="1" source="bOb_9my18t1phWn9kann-18" target="bOb_9my18t1phWn9kann-16" edge="1">
          <mxGeometry relative="1" as="geometry" />
        </mxCell>
        <mxCell id="bOb_9my18t1phWn9kann-18" value="Digital Object" style="whiteSpace=wrap;html=1;aspect=fixed;fillColor=#eeeeee;strokeColor=#36393d;fontFamily=Times New Roman;" parent="1" vertex="1">
          <mxGeometry x="390" y="320" width="80" height="80" as="geometry" />
        </mxCell>
        <mxCell id="bOb_9my18t1phWn9kann-19" value="Digital Shadow" style="text;html=1;align=center;verticalAlign=middle;whiteSpace=wrap;rounded=0;fontFamily=Times New Roman;" parent="1" vertex="1">
          <mxGeometry x="340" y="440" width="60" height="30" as="geometry" />
        </mxCell>
        <mxCell id="bOb_9my18t1phWn9kann-20" style="edgeStyle=orthogonalEdgeStyle;rounded=0;orthogonalLoop=1;jettySize=auto;html=1;entryX=0.5;entryY=0;entryDx=0;entryDy=0;exitX=0.5;exitY=0;exitDx=0;exitDy=0;fontFamily=Times New Roman;" parent="1" source="bOb_9my18t1phWn9kann-21" target="bOb_9my18t1phWn9kann-23" edge="1">
          <mxGeometry relative="1" as="geometry">
            <mxPoint x="590" y="250" as="sourcePoint" />
            <mxPoint x="660" y="250" as="targetPoint" />
          </mxGeometry>
        </mxCell>
        <mxCell id="bOb_9my18t1phWn9kann-21" value="Physical Object" style="whiteSpace=wrap;html=1;aspect=fixed;fontFamily=Times New Roman;" parent="1" vertex="1">
          <mxGeometry x="510" y="280" width="80" height="80" as="geometry" />
        </mxCell>
        <mxCell id="bOb_9my18t1phWn9kann-22" style="edgeStyle=orthogonalEdgeStyle;rounded=0;orthogonalLoop=1;jettySize=auto;html=1;entryX=0.5;entryY=1;entryDx=0;entryDy=0;exitX=0.5;exitY=1;exitDx=0;exitDy=0;fontFamily=Times New Roman;" parent="1" source="bOb_9my18t1phWn9kann-23" target="bOb_9my18t1phWn9kann-21" edge="1">
          <mxGeometry relative="1" as="geometry" />
        </mxCell>
        <mxCell id="bOb_9my18t1phWn9kann-23" value="Digital Object" style="whiteSpace=wrap;html=1;aspect=fixed;fillColor=#eeeeee;strokeColor=#36393d;fontFamily=Times New Roman;" parent="1" vertex="1">
          <mxGeometry x="620" y="320" width="80" height="80" as="geometry" />
        </mxCell>
        <mxCell id="bOb_9my18t1phWn9kann-24" value="Digital Twin" style="text;html=1;align=center;verticalAlign=middle;whiteSpace=wrap;rounded=0;fontFamily=Times New Roman;" parent="1" vertex="1">
          <mxGeometry x="570" y="440" width="60" height="30" as="geometry" />
        </mxCell>
        <mxCell id="bOb_9my18t1phWn9kann-25" value="" style="endArrow=none;html=1;rounded=0;dashed=1;dashPattern=1 2;fontFamily=Times New Roman;" parent="1" edge="1">
          <mxGeometry width="50" height="50" relative="1" as="geometry">
            <mxPoint x="260" y="480" as="sourcePoint" />
            <mxPoint x="260" y="400" as="targetPoint" />
          </mxGeometry>
        </mxCell>
        <mxCell id="bOb_9my18t1phWn9kann-26" value="" style="endArrow=none;html=1;rounded=0;dashed=1;dashPattern=1 2;fontFamily=Times New Roman;" parent="1" edge="1">
          <mxGeometry width="50" height="50" relative="1" as="geometry">
            <mxPoint x="500" y="480" as="sourcePoint" />
            <mxPoint x="500" y="400" as="targetPoint" />
          </mxGeometry>
        </mxCell>
        <mxCell id="bOb_9my18t1phWn9kann-27" value="Manual Data Flow" style="endArrow=classic;html=1;rounded=0;align=left;labelPosition=right;verticalLabelPosition=middle;verticalAlign=top;fontFamily=Times New Roman;" parent="1" edge="1">
          <mxGeometry width="50" height="50" relative="1" as="geometry">
            <mxPoint x="90" y="510" as="sourcePoint" />
            <mxPoint x="180" y="510" as="targetPoint" />
          </mxGeometry>
        </mxCell>
        <mxCell id="bOb_9my18t1phWn9kann-28" value="Automatic Data Flow" style="endArrow=classic;html=1;rounded=0;align=left;labelPosition=right;verticalLabelPosition=middle;verticalAlign=top;dashed=1;fontFamily=Times New Roman;" parent="1" edge="1">
          <mxGeometry width="50" height="50" relative="1" as="geometry">
            <mxPoint x="90" y="540" as="sourcePoint" />
            <mxPoint x="180" y="540" as="targetPoint" />
          </mxGeometry>
        </mxCell>
      </root>
    </mxGraphModel>
  </diagram>
</mxfile>
